<?xml version="1.0" encoding="UTF-8"?>
<svg width="653px" height="323px" viewBox="0 0 653 323" version="1.1" xmlns="http://www.w3.org/2000/svg" xmlns:xlink="http://www.w3.org/1999/xlink">
    <title>Group 4</title>
    <g id="Ontwerp-08-04-2022" stroke="none" stroke-width="1" fill="none" fill-rule="evenodd">
        <g id="9-1-404-copy" transform="translate(-763, -847)" fill-rule="nonzero">
            <g id="DGT-Logo-PMS-Coated-2020" transform="translate(763, 847)">
                <g id="Group-4" transform="translate(0.3, -0)">
                    <g id="Layer_1" transform="translate(0, 0)">
                        <path d="M216.3,169.4 C216.3,131 226,96.7 244,68.3 C218.8,24.8 171.4,-1.42108547e-14 106.9,-1.42108547e-14 C42.4,-1.42108547e-14 31,6.9 0,19.4 L0,154.9 L60.1,154.9 L60.1,59.7 C72.1,56 85.1,54.1 99.9,54.1 C163.3,54.1 199.4,93 199.4,159.1 C199.4,225.2 151.6,271.2 90.1,271.2 L89.8,321.4 C155.2,321.4 205.5,295.9 235,254 C222.8,230.1 216.4,201.7 216.4,169.3 L216.3,169.4 Z" id="Path" fill="#000000"></path>
                        <path d="M433.2,0.5 L433.2,51.3 L513.6,51.3 L513.6,302.8 C532.6,310.2 554,315.2 576,317.6 L576,51.3 L652.4,51.3 L652.4,0.5 L433.1,0.5 L433.2,0.5 Z" id="Path" fill="#000000"></path>
                        <path d="M432.7,262.6 C420.7,266.3 407.7,268.2 392.9,268.2 C329.5,268.2 293.4,229.3 293.4,163.2 C293.4,97.1 341.2,51.1 402.7,51.1 L403,0.8 C294.8,0.8 228.1,70.7 228.1,168.7 C228.1,266.7 286.9,322.3 385.8,322.3 C484.7,322.3 461.7,315.4 492.7,302.9 L492.7,154.9 L432.6,154.9 L432.6,262.6 L432.7,262.6 Z" id="Path" fill="#FF9F0A"></path>
                    </g>
                    <rect id="Rectangle" fill="#000000" x="0" y="159.7" width="27.6" height="27.6"></rect>
                    <rect id="Rectangle" fill="#000000" x="32.5" y="159.7" width="27.6" height="27.6"></rect>
                    <rect id="Rectangle" fill="#000000" x="32.5" y="192.2" width="27.6" height="27.6"></rect>
                </g>
            </g>
        </g>
    </g>
</svg>